<svg version="1.1" xmlns="http://www.w3.org/2000/svg" xmlns:xlink="http://www.w3.org/1999/xlink" width="800px" height="800px" viewBox="0,0,256,256"><g fill="#717171" fill-rule="nonzero" stroke="none" stroke-width="1" stroke-linecap="butt" stroke-linejoin="miter" stroke-miterlimit="10" stroke-dasharray="" stroke-dashoffset="0" font-family="none" font-weight="none" font-size="none" text-anchor="none" style="mix-blend-mode: normal"><g transform="translate(0.212,4.211) scale(8,8)"><path d="M5.99,3.993h19.967zM16.972,14.975v14.974c3.661,-0.013 7.321,-0.165 10.982,-1.995l-1.997,-23.961c-9.984,-3.993 -9.984,-3.993 -19.967,0l-1.997,23.961c3.661,1.83 7.321,1.983 10.982,1.995v-14.974h-7.987v-2.995h17.971v2.995zM19.967,22.962h-0.998v-0.998h0.998zM19.967,20.965h-0.998v-0.998h0.998zM19.967,18.969h-0.998v-0.998h0.998zM21.964,22.962h-0.998v-0.998h0.998zM21.964,20.965h-0.998v-0.998h0.998zM21.964,18.969h-0.998v-0.998h0.998zM23.961,22.962h-0.998v-0.998h0.998zM23.961,20.965h-0.998v-0.998h0.998zM23.961,18.969h-0.998v-0.998h0.998zM11.98,17.97h0.998v0.998h-0.998zM11.98,19.967h0.998v0.998h-0.998zM11.98,21.964h0.998v0.998h-0.998zM9.984,17.97h0.998v0.998h-0.998zM9.984,19.967h0.998v0.998h-0.998zM9.984,21.964h0.998v0.998h-0.998zM7.987,17.97h0.998v0.998h-0.998zM7.987,19.967h0.998v0.998h-0.998zM7.987,21.964h0.998v0.998h-0.998zM9.984,10.982c-0.276,0 -0.499,-0.223 -0.499,-0.499c0,-0.276 0.223,-0.499 0.499,-0.499c0.276,0 0.499,0.223 0.499,0.499c0,0.276 -0.224,0.499 -0.499,0.499zM12.979,10.982c-0.276,0 -0.499,-0.223 -0.499,-0.499c0,-0.276 0.223,-0.499 0.499,-0.499c0.276,0 0.499,0.223 0.499,0.499c0,0.276 -0.224,0.499 -0.499,0.499zM15.974,10.982c-0.276,0 -0.499,-0.223 -0.499,-0.499c0,-0.276 0.223,-0.499 0.499,-0.499c0.276,0 0.499,0.223 0.499,0.499c0,0.276 -0.224,0.499 -0.499,0.499zM18.969,10.982c-0.276,0 -0.499,-0.223 -0.499,-0.499c0,-0.276 0.223,-0.499 0.499,-0.499c0.276,0 0.499,0.223 0.499,0.499c0,0.276 -0.224,0.499 -0.499,0.499zM21.964,10.982c-0.276,0 -0.499,-0.223 -0.499,-0.499c0,-0.276 0.223,-0.499 0.499,-0.499c0.276,0 0.499,0.223 0.499,0.499c0,0.276 -0.224,0.499 -0.499,0.499z"></path></g></g></svg>